<?xml version="1.0" standalone="no"?>
<!DOCTYPE svg PUBLIC "-//W3C//DTD SVG 20010904//EN"
 "http://www.w3.org/TR/2001/REC-SVG-20010904/DTD/svg10.dtd">
<svg version="1.0" xmlns="http://www.w3.org/2000/svg"
 width="128.000000pt" height="128.000000pt" viewBox="0 0 128.000000 128.000000"
 preserveAspectRatio="xMidYMid meet">

<g transform="translate(0.000000,128.000000) scale(0.100000,-0.100000)"
fill="#000000" stroke="none">
<path d="M560 1238 c-36 -21 -132 -78 -215 -126 l-150 -87 -3 -381 c-2 -297 1
-384 10 -392 19 -15 430 -252 438 -252 8 0 358 200 413 236 l37 24 0 118 c0
64 -4 122 -8 128 -4 6 -51 37 -104 69 -54 31 -98 61 -98 66 0 5 44 34 98 65
53 32 100 62 104 68 4 6 8 63 8 127 0 98 -3 118 -17 131 -10 8 -81 50 -158 93
-77 43 -168 96 -203 117 -34 21 -68 38 -75 37 -6 -1 -41 -19 -77 -41z m192
-274 c54 -30 98 -61 98 -67 0 -7 -37 -32 -82 -57 -136 -75 -128 -63 -128 -200
0 -92 3 -122 15 -134 8 -8 58 -38 110 -66 52 -28 93 -56 90 -60 -9 -14 -199
-120 -215 -120 -16 0 -186 94 -212 118 -16 14 -18 39 -18 262 0 223 2 248 18
262 27 25 195 118 211 118 8 0 59 -25 113 -56z"/>
</g>
</svg>
